<mxfile host="65bd71144e">
    <diagram id="0HKSw33PQWi8Kua1xZyR" name="Page-1">
        <mxGraphModel dx="731" dy="492" grid="1" gridSize="10" guides="1" tooltips="1" connect="1" arrows="1" fold="1" page="1" pageScale="1" pageWidth="850" pageHeight="1100" math="0" shadow="0">
            <root>
                <mxCell id="0"/>
                <mxCell id="1" parent="0"/>
                <mxCell id="3" value="Domain" style="fontStyle=0;verticalAlign=top;align=center;spacingTop=-2;fillColor=none;rounded=0;whiteSpace=wrap;html=1;strokeColor=#919191;strokeWidth=2;dashed=1;container=1;collapsible=0;expand=0;recursiveResize=0;sketch=1;" vertex="1" parent="1">
                    <mxGeometry x="20" y="80" width="190" height="200" as="geometry"/>
                </mxCell>
                <mxCell id="5" style="edgeStyle=none;html=1;" edge="1" parent="3" source="2" target="4">
                    <mxGeometry relative="1" as="geometry"/>
                </mxCell>
                <mxCell id="2" value="microservice" style="rounded=0;whiteSpace=wrap;html=1;sketch=1;fillColor=#d5e8d4;strokeColor=#82b366;" vertex="1" parent="3">
                    <mxGeometry x="39" y="40" width="121" height="40" as="geometry"/>
                </mxCell>
                <mxCell id="4" value="" style="shape=cylinder3;whiteSpace=wrap;html=1;boundedLbl=1;backgroundOutline=1;size=7.0025787353515625;sketch=1;fillColor=#d5e8d4;strokeColor=#82b366;" vertex="1" parent="3">
                    <mxGeometry x="70" y="120" width="65" height="60" as="geometry"/>
                </mxCell>
                <mxCell id="6" value="Integration Layer" style="rounded=1;whiteSpace=wrap;html=1;sketch=1;verticalAlign=top;fillColor=#dae8fc;strokeColor=#6c8ebf;arcSize=5;" vertex="1" parent="1">
                    <mxGeometry x="270" y="80" width="150" height="210" as="geometry"/>
                </mxCell>
                <mxCell id="36" value="Mainframe" style="swimlane;sketch=1;fillColor=#dae8fc;strokeColor=#6c8ebf;" vertex="1" parent="1">
                    <mxGeometry x="480" y="80" width="200" height="210" as="geometry"/>
                </mxCell>
                <mxCell id="37" value="" style="shape=cylinder3;whiteSpace=wrap;html=1;boundedLbl=1;backgroundOutline=1;size=7.0025787353515625;sketch=0;fillColor=#dae8fc;strokeColor=#6c8ebf;" vertex="1" parent="36">
                    <mxGeometry x="116" y="130" width="74" height="60" as="geometry"/>
                </mxCell>
                <mxCell id="39" style="edgeStyle=orthogonalEdgeStyle;sketch=0;html=1;entryX=0.5;entryY=0;entryDx=0;entryDy=0;entryPerimeter=0;strokeColor=#0000FF;" edge="1" parent="36" source="38" target="37">
                    <mxGeometry relative="1" as="geometry"/>
                </mxCell>
                <mxCell id="38" value="Business Function" style="whiteSpace=wrap;html=1;sketch=0;fillColor=#dae8fc;strokeColor=#6c8ebf;" vertex="1" parent="36">
                    <mxGeometry x="30" y="40" width="128" height="30" as="geometry"/>
                </mxCell>
                <mxCell id="41" value="Transformation, &lt;br&gt;Anti Corruption Layer" style="whiteSpace=wrap;html=1;sketch=0;" vertex="1" parent="1">
                    <mxGeometry x="283" y="205" width="120" height="60" as="geometry"/>
                </mxCell>
                <mxCell id="42" value="integration flows" parent="0" visible="0"/>
                <object label="New Data" id="51">
                    <mxCell parent="0"/>
                </object>
                <mxCell id="49" value="" style="shape=cylinder3;whiteSpace=wrap;html=1;boundedLbl=1;backgroundOutline=1;size=7.0025787353515625;sketch=1;fillColor=#84E892;strokeColor=#82b366;" vertex="1" parent="51">
                    <mxGeometry x="90" y="220" width="65" height="20" as="geometry"/>
                </mxCell>
                <mxCell id="48" value="" style="shape=cylinder3;whiteSpace=wrap;html=1;boundedLbl=1;backgroundOutline=1;size=7.0025787353515625;sketch=0;fillColor=#799CFC;strokeColor=#6c8ebf;" vertex="1" parent="51">
                    <mxGeometry x="596" y="230" width="74" height="30" as="geometry"/>
                </mxCell>
                <mxCell id="50" value="from-new" parent="0" visible="0"/>
                <mxCell id="40" style="edgeStyle=orthogonalEdgeStyle;sketch=0;html=1;entryX=1;entryY=0.5;entryDx=0;entryDy=0;strokeColor=#0000FF;startArrow=classic;startFill=1;endArrow=none;endFill=0;exitX=0.25;exitY=1;exitDx=0;exitDy=0;" edge="1" parent="50" source="38" target="41">
                    <mxGeometry relative="1" as="geometry">
                        <Array as="points">
                            <mxPoint x="524" y="235"/>
                        </Array>
                    </mxGeometry>
                </mxCell>
                <mxCell id="35" style="edgeStyle=orthogonalEdgeStyle;html=1;exitX=1;exitY=0.5;exitDx=0;exitDy=0;sketch=0;startArrow=none;startFill=0;entryX=0;entryY=0.5;entryDx=0;entryDy=0;exitPerimeter=0;strokeColor=#0000FF;" edge="1" parent="50" source="4" target="41">
                    <mxGeometry relative="1" as="geometry">
                        <mxPoint x="130.08166076660154" y="323.9" as="targetPoint"/>
                    </mxGeometry>
                </mxCell>
                <mxCell id="43" value="1" style="ellipse;whiteSpace=wrap;html=1;aspect=fixed;sketch=0;fillColor=#dae8fc;strokeColor=#6c8ebf;" vertex="1" parent="50">
                    <mxGeometry x="230" y="200" width="20" height="20" as="geometry"/>
                </mxCell>
                <mxCell id="47" value="1" style="ellipse;whiteSpace=wrap;html=1;aspect=fixed;sketch=0;fillColor=#dae8fc;strokeColor=#6c8ebf;" vertex="1" parent="50">
                    <mxGeometry x="490" y="210" width="20" height="20" as="geometry"/>
                </mxCell>
                <object label="push-from-legacy" id="52">
                    <mxCell parent="0" visible="0"/>
                </object>
                <mxCell id="53" style="edgeStyle=orthogonalEdgeStyle;sketch=0;html=1;startArrow=none;startFill=0;endArrow=classic;endFill=1;strokeColor=#009900;" edge="1" parent="52" source="48" target="41">
                    <mxGeometry relative="1" as="geometry"/>
                </mxCell>
                <mxCell id="54" style="edgeStyle=orthogonalEdgeStyle;sketch=0;html=1;entryX=1;entryY=0.5;entryDx=0;entryDy=0;entryPerimeter=0;startArrow=none;startFill=0;endArrow=classic;endFill=1;strokeColor=#009900;" edge="1" parent="52" source="41" target="49">
                    <mxGeometry relative="1" as="geometry"/>
                </mxCell>
                <mxCell id="55" value="3" style="ellipse;whiteSpace=wrap;html=1;aspect=fixed;sketch=0;fillColor=#d5e8d4;strokeColor=#82b366;" vertex="1" parent="52">
                    <mxGeometry x="240" y="210" width="20" height="20" as="geometry"/>
                </mxCell>
                <mxCell id="56" value="3" style="ellipse;whiteSpace=wrap;html=1;aspect=fixed;sketch=0;fillColor=#d5e8d4;strokeColor=#82b366;" vertex="1" parent="52">
                    <mxGeometry x="550" y="220" width="20" height="20" as="geometry"/>
                </mxCell>
                <mxCell id="59" value="read-from-legacy" parent="0" visible="0"/>
                <mxCell id="57" value="" style="edgeStyle=orthogonalEdgeStyle;sketch=0;html=1;startArrow=classic;startFill=1;endArrow=none;endFill=0;strokeColor=#0000FF;entryX=0;entryY=0.5;entryDx=0;entryDy=0;" edge="1" parent="59" source="2" target="41">
                    <mxGeometry relative="1" as="geometry"/>
                </mxCell>
                <mxCell id="60" value="1" style="ellipse;whiteSpace=wrap;html=1;aspect=fixed;sketch=0;fillColor=#d5e8d4;strokeColor=#82b366;" vertex="1" parent="59">
                    <mxGeometry x="240" y="210" width="20" height="20" as="geometry"/>
                </mxCell>
                <mxCell id="61" style="edgeStyle=orthogonalEdgeStyle;sketch=0;html=1;entryX=1;entryY=0.5;entryDx=0;entryDy=0;startArrow=none;startFill=0;endArrow=classic;endFill=1;strokeColor=#0000FF;" edge="1" parent="59" source="37" target="41">
                    <mxGeometry relative="1" as="geometry"/>
                </mxCell>
                <object label="push to legacy" id="62">
                    <mxCell parent="0"/>
                </object>
                <mxCell id="63" style="edgeStyle=orthogonalEdgeStyle;sketch=0;html=1;entryX=0;entryY=0.5;entryDx=0;entryDy=0;startArrow=none;startFill=0;endArrow=classic;endFill=1;strokeColor=#FF3333;" edge="1" parent="62" source="2" target="41">
                    <mxGeometry relative="1" as="geometry"/>
                </mxCell>
                <mxCell id="64" style="edgeStyle=orthogonalEdgeStyle;sketch=0;html=1;startArrow=none;startFill=0;endArrow=classic;endFill=1;strokeColor=#FF3333;" edge="1" parent="62" source="41" target="48">
                    <mxGeometry relative="1" as="geometry"/>
                </mxCell>
                <mxCell id="65" value="2" style="ellipse;whiteSpace=wrap;html=1;aspect=fixed;sketch=0;fillColor=#f8cecc;strokeColor=#b85450;" vertex="1" parent="62">
                    <mxGeometry x="240" y="210" width="20" height="20" as="geometry"/>
                </mxCell>
                <mxCell id="66" value="2" style="ellipse;whiteSpace=wrap;html=1;aspect=fixed;sketch=0;fillColor=#f8cecc;strokeColor=#b85450;" vertex="1" parent="62">
                    <mxGeometry x="500" y="220" width="20" height="20" as="geometry"/>
                </mxCell>
                <mxCell id="72" style="edgeStyle=orthogonalEdgeStyle;sketch=0;html=1;entryX=0;entryY=0.5;entryDx=0;entryDy=0;startArrow=none;startFill=0;endArrow=classic;endFill=1;strokeColor=#FF3333;exitX=1;exitY=0;exitDx=0;exitDy=7.0025787353515625;exitPerimeter=0;" edge="1" parent="62" source="49" target="41">
                    <mxGeometry relative="1" as="geometry">
                        <mxPoint x="190" y="150" as="sourcePoint"/>
                        <mxPoint x="293" y="245" as="targetPoint"/>
                    </mxGeometry>
                </mxCell>
                <object label="read-from-legacy" id="67">
                    <mxCell parent="0" visible="0"/>
                </object>
                <mxCell id="68" style="edgeStyle=orthogonalEdgeStyle;sketch=0;html=1;entryX=1;entryY=0.5;entryDx=0;entryDy=0;startArrow=none;startFill=0;endArrow=classic;endFill=1;strokeColor=#7F00FF;" edge="1" parent="67" source="41" target="2">
                    <mxGeometry relative="1" as="geometry"/>
                </mxCell>
                <mxCell id="69" style="edgeStyle=orthogonalEdgeStyle;sketch=0;html=1;entryX=1;entryY=0.5;entryDx=0;entryDy=0;startArrow=none;startFill=0;endArrow=classic;endFill=1;strokeColor=#7F00FF;" edge="1" parent="67" source="48" target="41">
                    <mxGeometry relative="1" as="geometry"/>
                </mxCell>
                <mxCell id="71" value="4" style="ellipse;whiteSpace=wrap;html=1;aspect=fixed;sketch=0;fillColor=#e1d5e7;strokeColor=#9673a6;" vertex="1" parent="67">
                    <mxGeometry x="240" y="200" width="20" height="20" as="geometry"/>
                </mxCell>
                <mxCell id="70" value="4" style="ellipse;whiteSpace=wrap;html=1;aspect=fixed;sketch=0;fillColor=#e1d5e7;strokeColor=#9673a6;" vertex="1" parent="67">
                    <mxGeometry x="510" y="220" width="20" height="20" as="geometry"/>
                </mxCell>
            </root>
        </mxGraphModel>
    </diagram>
</mxfile>